<?xml version="1.0" encoding="utf-8"?>
<!-- Generator: Adobe Illustrator 15.1.0, SVG Export Plug-In . SVG Version: 6.00 Build 0)  -->
<!DOCTYPE svg PUBLIC "-//W3C//DTD SVG 1.1//EN" "http://www.w3.org/Graphics/SVG/1.1/DTD/svg11.dtd">
<svg version="1.1" id="Layer_1" xmlns="http://www.w3.org/2000/svg" xmlns:xlink="http://www.w3.org/1999/xlink" x="0px" y="0px"
	 width="270px" height="270px" viewBox="0 0 270 270" enable-background="new 0 0 270 270" xml:space="preserve">
<title>QR Code</title>
<desc>http://tinyurl.com/RITCSCMail</desc>
<rect fill="#FFFFFF" width="270" height="270"/>
<g id="elements">
	<path d="M10,10h10v10H10V10z M20,10h10v10H20V10z M30,10h10v10H30V10z M40,10h10v10H40V10z M50,10h10v10H50V10z M60,10h10v10H60V10
		z M70,10h10v10H70V10z M100,10h10v10h-10V10z M120,10h10v10h-10V10z M140,10h10v10h-10V10z M170,10h10v10h-10V10z M190,10h10v10
		h-10V10z M200,10h10v10h-10V10z M210,10h10v10h-10V10z M220,10h10v10h-10V10z M230,10h10v10h-10V10z M240,10h10v10h-10V10z M250,10
		h10v10h-10V10z M10,20h10v10H10V20z M70,20h10v10H70V20z M90,20h10v10H90V20z M100,20h10v10h-10V20z M150,20h10v10h-10V20z M160,20
		h10v10h-10V20z M170,20h10v10h-10V20z M190,20h10v10h-10V20z M250,20h10v10h-10V20z M10,30h10v10H10V30z M30,30h10v10H30V30z
		 M40,30h10v10H40V30z M50,30h10v10H50V30z M70,30h10v10H70V30z M100,30h10v10h-10V30z M120,30h10v10h-10V30z M130,30h10v10h-10V30z
		 M150,30h10v10h-10V30z M170,30h10v10h-10V30z M190,30h10v10h-10V30z M210,30h10v10h-10V30z M220,30h10v10h-10V30z M230,30h10v10
		h-10V30z M250,30h10v10h-10V30z M10,40h10v10H10V40z M30,40h10v10H30V40z M40,40h10v10H40V40z M50,40h10v10H50V40z M70,40h10v10H70
		V40z M90,40h10v10H90V40z M100,40h10v10h-10V40z M120,40h10v10h-10V40z M130,40h10v10h-10V40z M140,40h10v10h-10V40z M190,40h10v10
		h-10V40z M210,40h10v10h-10V40z M220,40h10v10h-10V40z M230,40h10v10h-10V40z M250,40h10v10h-10V40z M10,50h10v10H10V50z M30,50h10
		v10H30V50z M40,50h10v10H40V50z M50,50h10v10H50V50z M70,50h10v10H70V50z M170,50h10v10h-10V50z M190,50h10v10h-10V50z M210,50h10
		v10h-10V50z M220,50h10v10h-10V50z M230,50h10v10h-10V50z M250,50h10v10h-10V50z M10,60h10v10H10V60z M70,60h10v10H70V60z M90,60
		h10v10H90V60z M110,60h10v10h-10V60z M160,60h10v10h-10V60z M170,60h10v10h-10V60z M190,60h10v10h-10V60z M250,60h10v10h-10V60z
		 M10,70h10v10H10V70z M20,70h10v10H20V70z M30,70h10v10H30V70z M40,70h10v10H40V70z M50,70h10v10H50V70z M60,70h10v10H60V70z
		 M70,70h10v10H70V70z M90,70h10v10H90V70z M110,70h10v10h-10V70z M130,70h10v10h-10V70z M150,70h10v10h-10V70z M170,70h10v10h-10
		V70z M190,70h10v10h-10V70z M200,70h10v10h-10V70z M210,70h10v10h-10V70z M220,70h10v10h-10V70z M230,70h10v10h-10V70z M240,70h10
		v10h-10V70z M250,70h10v10h-10V70z M120,80h10v10h-10V80z M130,80h10v10h-10V80z M10,90h10v10H10V90z M20,90h10v10H20V90z M30,90
		h10v10H30V90z M40,90h10v10H40V90z M50,90h10v10H50V90z M70,90h10v10H70V90z M80,90h10v10H80V90z M90,90h10v10H90V90z M100,90h10
		v10h-10V90z M110,90h10v10h-10V90z M120,90h10v10h-10V90z M130,90h10v10h-10V90z M150,90h10v10h-10V90z M160,90h10v10h-10V90z
		 M180,90h10v10h-10V90z M200,90h10v10h-10V90z M220,90h10v10h-10V90z M240,90h10v10h-10V90z M10,100h10v10H10V100z M40,100h10v10
		H40V100z M50,100h10v10H50V100z M60,100h10v10H60V100z M80,100h10v10H80V100z M100,100h10v10h-10V100z M130,100h10v10h-10V100z
		 M170,100h10v10h-10V100z M200,100h10v10h-10V100z M240,100h10v10h-10V100z M20,110h10v10H20V110z M30,110h10v10H30V110z M40,110
		h10v10H40V110z M70,110h10v10H70V110z M100,110h10v10h-10V110z M140,110h10v10h-10V110z M150,110h10v10h-10V110z M160,110h10v10
		h-10V110z M180,110h10v10h-10V110z M200,110h10v10h-10V110z M220,110h10v10h-10V110z M240,110h10v10h-10V110z M250,110h10v10h-10
		V110z M10,120h10v10H10V120z M40,120h10v10H40V120z M50,120h10v10H50V120z M90,120h10v10H90V120z M100,120h10v10h-10V120z M110,120
		h10v10h-10V120z M120,120h10v10h-10V120z M130,120h10v10h-10V120z M140,120h10v10h-10V120z M150,120h10v10h-10V120z M170,120h10v10
		h-10V120z M210,120h10v10h-10V120z M250,120h10v10h-10V120z M10,130h10v10H10V130z M20,130h10v10H20V130z M30,130h10v10H30V130z
		 M40,130h10v10H40V130z M60,130h10v10H60V130z M70,130h10v10H70V130z M90,130h10v10H90V130z M100,130h10v10h-10V130z M120,130h10
		v10h-10V130z M140,130h10v10h-10V130z M180,130h10v10h-10V130z M190,130h10v10h-10V130z M210,130h10v10h-10V130z M230,130h10v10
		h-10V130z M240,130h10v10h-10V130z M250,130h10v10h-10V130z M10,140h10v10H10V140z M100,140h10v10h-10V140z M110,140h10v10h-10V140
		z M130,140h10v10h-10V140z M140,140h10v10h-10V140z M180,140h10v10h-10V140z M200,140h10v10h-10V140z M220,140h10v10h-10V140z
		 M240,140h10v10h-10V140z M10,150h10v10H10V150z M30,150h10v10H30V150z M40,150h10v10H40V150z M60,150h10v10H60V150z M70,150h10v10
		H70V150z M100,150h10v10h-10V150z M110,150h10v10h-10V150z M130,150h10v10h-10V150z M140,150h10v10h-10V150z M160,150h10v10h-10
		V150z M220,150h10v10h-10V150z M240,150h10v10h-10V150z M250,150h10v10h-10V150z M10,160h10v10H10V160z M50,160h10v10H50V160z
		 M90,160h10v10H90V160z M130,160h10v10h-10V160z M160,160h10v10h-10V160z M170,160h10v10h-10V160z M180,160h10v10h-10V160z
		 M190,160h10v10h-10V160z M200,160h10v10h-10V160z M220,160h10v10h-10V160z M250,160h10v10h-10V160z M10,170h10v10H10V170z M40,170
		h10v10H40V170z M50,170h10v10H50V170z M70,170h10v10H70V170z M80,170h10v10H80V170z M90,170h10v10H90V170z M100,170h10v10h-10V170z
		 M110,170h10v10h-10V170z M130,170h10v10h-10V170z M140,170h10v10h-10V170z M150,170h10v10h-10V170z M170,170h10v10h-10V170z
		 M180,170h10v10h-10V170z M190,170h10v10h-10V170z M200,170h10v10h-10V170z M210,170h10v10h-10V170z M230,170h10v10h-10V170z
		 M90,180h10v10H90V180z M110,180h10v10h-10V180z M120,180h10v10h-10V180z M130,180h10v10h-10V180z M140,180h10v10h-10V180z
		 M160,180h10v10h-10V180z M170,180h10v10h-10V180z M210,180h10v10h-10V180z M220,180h10v10h-10V180z M230,180h10v10h-10V180z
		 M10,190h10v10H10V190z M20,190h10v10H20V190z M30,190h10v10H30V190z M40,190h10v10H40V190z M50,190h10v10H50V190z M60,190h10v10
		H60V190z M70,190h10v10H70V190z M90,190h10v10H90V190z M110,190h10v10h-10V190z M170,190h10v10h-10V190z M190,190h10v10h-10V190z
		 M210,190h10v10h-10V190z M220,190h10v10h-10V190z M230,190h10v10h-10V190z M240,190h10v10h-10V190z M250,190h10v10h-10V190z
		 M10,200h10v10H10V200z M70,200h10v10H70V200z M100,200h10v10h-10V200z M110,200h10v10h-10V200z M130,200h10v10h-10V200z M140,200
		h10v10h-10V200z M170,200h10v10h-10V200z M210,200h10v10h-10V200z M220,200h10v10h-10V200z M10,210h10v10H10V210z M30,210h10v10H30
		V210z M40,210h10v10H40V210z M50,210h10v10H50V210z M70,210h10v10H70V210z M90,210h10v10H90V210z M110,210h10v10h-10V210z M120,210
		h10v10h-10V210z M140,210h10v10h-10V210z M150,210h10v10h-10V210z M160,210h10v10h-10V210z M170,210h10v10h-10V210z M180,210h10v10
		h-10V210z M190,210h10v10h-10V210z M200,210h10v10h-10V210z M210,210h10v10h-10V210z M220,210h10v10h-10V210z M230,210h10v10h-10
		V210z M250,210h10v10h-10V210z M10,220h10v10H10V220z M30,220h10v10H30V220z M40,220h10v10H40V220z M50,220h10v10H50V220z M70,220
		h10v10H70V220z M90,220h10v10H90V220z M130,220h10v10h-10V220z M140,220h10v10h-10V220z M160,220h10v10h-10V220z M170,220h10v10
		h-10V220z M180,220h10v10h-10V220z M190,220h10v10h-10V220z M200,220h10v10h-10V220z M210,220h10v10h-10V220z M230,220h10v10h-10
		V220z M240,220h10v10h-10V220z M250,220h10v10h-10V220z M10,230h10v10H10V230z M30,230h10v10H30V230z M40,230h10v10H40V230z
		 M50,230h10v10H50V230z M70,230h10v10H70V230z M90,230h10v10H90V230z M110,230h10v10h-10V230z M160,230h10v10h-10V230z M180,230h10
		v10h-10V230z M200,230h10v10h-10V230z M230,230h10v10h-10V230z M250,230h10v10h-10V230z M10,240h10v10H10V240z M70,240h10v10H70
		V240z M90,240h10v10H90V240z M130,240h10v10h-10V240z M140,240h10v10h-10V240z M170,240h10v10h-10V240z M180,240h10v10h-10V240z
		 M190,240h10v10h-10V240z M200,240h10v10h-10V240z M210,240h10v10h-10V240z M220,240h10v10h-10V240z M250,240h10v10h-10V240z
		 M10,250h10v10H10V250z M20,250h10v10H20V250z M30,250h10v10H30V250z M40,250h10v10H40V250z M50,250h10v10H50V250z M60,250h10v10
		H60V250z M70,250h10v10H70V250z M90,250h10v10H90V250z M100,250h10v10h-10V250z M130,250h10v10h-10V250z M140,250h10v10h-10V250z
		 M150,250h10v10h-10V250z M180,250h10v10h-10V250z M190,250h10v10h-10V250z M200,250h10v10h-10V250z M210,250h10v10h-10V250z
		 M220,250h10v10h-10V250z M230,250h10v10h-10V250z M240,250h10v10h-10V250z M250,250h10v10h-10V250z"/>
</g>
</svg>
