<?xml version="1.0" encoding="utf-8"?>
<!-- Generator: Adobe Illustrator 15.1.0, SVG Export Plug-In . SVG Version: 6.00 Build 0)  -->
<!DOCTYPE svg PUBLIC "-//W3C//DTD SVG 1.1//EN" "http://www.w3.org/Graphics/SVG/1.1/DTD/svg11.dtd">
<svg version="1.1" id="Layer_1" xmlns="http://www.w3.org/2000/svg" xmlns:xlink="http://www.w3.org/1999/xlink" x="0px" y="0px"
	 width="572.842px" height="350.921px" viewBox="0 0 572.842 350.921" enable-background="new 0 0 572.842 350.921"
	 xml:space="preserve">
<g>
	<g id="XMLID_1_">
		<polygon fill="#6E8ECC" points="199.211,11.37 199.2,11.38 199.2,11.36 		"/>
		<polygon fill="#6E8ECC" points="199.2,11.36 199.2,11.38 199.19,11.37 		"/>
	</g>
	<g id="XMLID_2_">
		<polygon fill="#6E8ECC" points="72.011,11.37 72.021,11.38 72.021,11.36 		"/>
		<polygon fill="#6E8ECC" points="72.021,11.36 72.021,11.38 72.031,11.37 		"/>
		<polygon fill="#6E8ECC" points="199.19,11.4 179.661,32 148.461,32 135.61,18.42 122.761,32 91.561,32 72.031,11.4 82.851,0 
			188.371,0 		"/>
	</g>
	<g id="XMLID_3_">
		<polygon fill="#6E8ECC" points="65.971,144.59 65.98,144.58 65.961,144.58 		"/>
		<polygon fill="#6E8ECC" points="65.961,144.58 65.98,144.58 65.971,144.57 		"/>
		<polygon fill="#6E8ECC" points="86.421,36.94 86.421,125.04 65.821,144.57 54.421,133.75 54.421,28.23 65.821,17.41 		"/>
	</g>
	<g id="XMLID_6_">
		<polygon fill="#6E8ECC" points="199.211,289.22 199.2,289.21 199.2,289.23 		"/>
		<polygon fill="#6E8ECC" points="199.2,289.23 199.2,289.21 199.19,289.22 		"/>
	</g>
	<g id="XMLID_5_">
		<polygon fill="#6E8ECC" points="72.011,289.22 72.021,289.21 72.021,289.23 		"/>
		<polygon fill="#6E8ECC" points="72.021,289.23 72.021,289.21 72.031,289.22 		"/>
		<polygon fill="#6E8ECC" points="199.19,289.6 179.661,269 148.461,269 135.61,282.58 122.761,269 91.561,269 72.031,289.6 
			82.851,301 188.371,301 		"/>
	</g>
	<g id="XMLID_4_">
		<polygon fill="#6E8ECC" points="65.971,156 65.98,156.01 65.961,156.01 		"/>
		<polygon fill="#6E8ECC" points="65.961,156.01 65.98,156.01 65.971,156.02 		"/>
		<polygon fill="#6E8ECC" points="86.421,263.65 86.421,175.55 65.821,156.02 54.421,166.84 54.421,272.359 65.821,283.18 		"/>
	</g>
	<g id="XMLID_12_">
		<polygon fill="#6E8ECC" points="372.92,11.37 372.931,11.38 372.931,11.36 		"/>
		<polygon fill="#6E8ECC" points="372.931,11.36 372.931,11.38 372.94,11.37 		"/>
	</g>
	<g id="XMLID_11_">
		<polygon fill="#6E8ECC" points="501.12,11.37 501.11,11.38 501.11,11.36 		"/>
		<polygon fill="#6E8ECC" points="501.11,11.36 501.11,11.38 501.101,11.37 		"/>
		<polygon fill="#6E8ECC" points="373.94,11.4 393.47,32 424.67,32 437.521,18.42 450.37,32 481.569,32 501.101,11.4 490.28,0 
			384.76,0 		"/>
	</g>
	<g id="XMLID_10_">
		<polygon fill="#6E8ECC" points="507.16,144.59 507.15,144.58 507.17,144.58 		"/>
		<polygon fill="#6E8ECC" points="507.17,144.58 507.15,144.58 507.16,144.57 		"/>
		<polygon fill="#6E8ECC" points="485.421,36.94 485.421,125.04 506.021,144.57 517.421,133.75 517.421,28.23 506.021,17.41 		"/>
	</g>
	<g id="XMLID_9_">
		<polygon fill="#6E8ECC" points="372.92,289.22 372.931,289.21 372.931,289.23 		"/>
		<polygon fill="#6E8ECC" points="372.931,289.23 372.931,289.21 372.94,289.22 		"/>
	</g>
	<g id="XMLID_8_">
		<polygon fill="#6E8ECC" points="501.12,289.22 501.11,289.21 501.11,289.23 		"/>
		<polygon fill="#6E8ECC" points="501.11,289.23 501.11,289.21 501.101,289.22 		"/>
		<polygon fill="#6E8ECC" points="373.94,289.6 393.47,269 424.67,269 437.521,282.58 450.37,269 481.569,269 501.101,289.6 
			490.28,301 384.76,301 		"/>
	</g>
	<g id="XMLID_7_">
		<polygon fill="#6E8ECC" points="507.16,156 507.15,156.01 507.17,156.01 		"/>
		<polygon fill="#6E8ECC" points="507.17,156.01 507.15,156.01 507.16,156.02 		"/>
		<polygon fill="#6E8ECC" points="485.421,263.65 485.421,175.55 506.021,156.02 517.421,166.84 517.421,272.359 506.021,283.18 		
			"/>
	</g>
	<polygon fill="#6E8ECC" points="312.921,69 345.921,69 357.254,82.5 342.254,96 308.921,96 298.254,82.5 	"/>
	<polygon fill="#6E8ECC" points="253.921,69 286.921,69 298.254,82.5 283.254,96 249.921,96 239.254,82.5 	"/>
	<polygon fill="#6E8ECC" points="225.983,147.25 247.972,128.75 252.636,104.875 237.087,85.5 224.421,96 218.546,134.375 	"/>
	<polygon fill="#6E8ECC" points="306.921,136 334.921,136 345.588,149 329.755,163 304.921,163 290.921,149.5 	"/>
	<polygon fill="#6E8ECC" points="242.921,136 273.088,136 281.588,149 265.755,163 237.755,163 226.921,149.5 	"/>
	<polygon fill="#6E8ECC" points="322.921,222 224.921,222 216.171,211.125 237.671,192 264.921,192 276.704,205.375 290.921,192 
		319.046,192 334.671,210.75 	"/>
	<polygon fill="#6E8ECC" points="336.671,208.75 320.338,189.15 324.546,170.375 347.023,150.499 354.421,164.5 349.171,197.875 	
		"/>
</g>
<g>
	<path fill="#DE6200" d="M16.409,336.274c0,2.289-1.135,3.434-3.403,3.434H3.403c-2.269,0-3.403-1.145-3.403-3.434v-22.7
		c0-2.289,1.135-3.434,3.403-3.434h9.603c2.269,0,3.403,1.145,3.403,3.434v5.896h-3.98v-5.773H4.042v22.456h8.387v-6.594h3.98
		V336.274z"/>
	<path fill="#DE6200" d="M39.96,336.274c0,2.289-1.145,3.434-3.434,3.434H26.377c-2.27,0-3.403-1.145-3.403-3.434v-22.7
		c0-2.289,1.134-3.434,3.403-3.434h10.149c2.289,0,3.434,1.145,3.434,3.434V336.274z M35.918,336.152v-22.456h-8.903v22.456H35.918z
		"/>
	<path fill="#DE6200" d="M76.273,339.708h-4.041v-25.951L63.42,314v25.708h-4.012v-25.951L50.596,314v25.708h-4.041v-29.567h4.041
		v0.82c1.58-0.202,3.16-0.415,4.74-0.638c1.925-0.243,3.515-0.365,4.771-0.365c1.235,0,2.146,0.375,2.734,1.125
		c1.702-0.223,3.394-0.456,5.075-0.699c2.208-0.283,3.879-0.426,5.014-0.426c2.229,0,3.343,1.104,3.343,3.313V339.708z"/>
	<path fill="#DE6200" d="M99.824,333.357c0,1.823-0.598,3.338-1.793,4.543s-2.694,1.808-4.497,1.808h-6.655v11.213h-4.041v-40.78
		h4.041v0.82c1.601-0.202,3.201-0.405,4.802-0.607c2.025-0.264,3.616-0.396,4.771-0.396c2.249,0,3.373,1.104,3.373,3.313V333.357z
		 M95.782,332.749v-18.992L86.879,314v22.152h5.592C94.679,336.152,95.782,335.019,95.782,332.749z"/>
	<path fill="#DE6200" d="M123.223,339.708h-3.98v-0.82c-1.621,0.223-3.231,0.436-4.832,0.638c-1.944,0.243-3.555,0.365-4.831,0.365
		c-2.188,0-3.282-1.095-3.282-3.282v-26.468h3.98v25.951l8.965-0.243v-25.708h3.98V339.708z"/>
	<path fill="#DE6200" d="M140.453,339.708h-5.744c-2.269,0-3.403-1.145-3.403-3.434v-22.578h-3.555v-3.556h3.555v-9.207h3.981v9.207
		h5.166v3.556h-5.166v22.456h5.166V339.708z"/>
	<path fill="#DE6200" d="M162.149,336.274c0,2.289-1.135,3.434-3.403,3.434h-9.724c-2.27,0-3.403-1.145-3.403-3.434v-22.7
		c0-2.289,1.134-3.434,3.403-3.434h9.724c2.269,0,3.403,1.145,3.403,3.434v10.636l-1.367,1.429h-11.243v10.696h8.69v-5.409h3.92
		V336.274z M158.229,322.417v-8.903h-8.69v8.903H158.229z"/>
	<path fill="#DE6200" d="M184.303,319.865h-3.981v-6.108L172.877,314v25.708h-4.042v-29.567h4.042v0.82
		c1.337-0.202,2.684-0.415,4.041-0.638c1.621-0.243,2.968-0.365,4.042-0.365c2.229,0,3.343,1.104,3.343,3.313V319.865z"/>
	<path fill="#DE6200" d="M217.547,336.274c0,2.289-1.145,3.434-3.434,3.434h-9.269c-2.29,0-3.434-1.145-3.434-3.434v-6.716h3.98
		v6.655h8.175v-5.896l-10.575-8.661c-1.014-0.81-1.52-1.863-1.52-3.16v-4.923c0-2.289,1.145-3.434,3.434-3.434h9.146
		c2.289,0,3.435,1.145,3.435,3.434v5.896h-3.92v-5.835h-8.175v5.166l10.666,8.661c0.992,0.79,1.489,1.864,1.489,3.221V336.274z"/>
	<path fill="#DE6200" d="M240.368,336.274c0,2.289-1.135,3.434-3.403,3.434h-9.603c-2.27,0-3.403-1.145-3.403-3.434v-22.7
		c0-2.289,1.134-3.434,3.403-3.434h9.603c2.269,0,3.403,1.145,3.403,3.434v5.896h-3.981v-5.773H228v22.456h8.387v-6.594h3.981
		V336.274z"/>
	<path fill="#DE6200" d="M251.217,303.668h-4.103v-5.105h4.103V303.668z M251.155,339.708h-3.98v-29.567h3.98V339.708z"/>
	<path fill="#DE6200" d="M274.554,336.274c0,2.289-1.135,3.434-3.403,3.434h-9.724c-2.27,0-3.403-1.145-3.403-3.434v-22.7
		c0-2.289,1.134-3.434,3.403-3.434h9.724c2.269,0,3.403,1.145,3.403,3.434v10.636l-1.367,1.429h-11.243v10.696h8.69v-5.409h3.92
		V336.274z M270.634,322.417v-8.903h-8.69v8.903H270.634z"/>
	<path fill="#DE6200" d="M298.227,339.708h-4.042v-25.951L285.281,314v25.708h-4.042v-29.567h4.042v0.82
		c1.58-0.202,3.17-0.415,4.771-0.638c1.945-0.243,3.545-0.365,4.802-0.365c2.248,0,3.373,1.104,3.373,3.313V339.708z"/>
	<path fill="#DE6200" d="M321.169,336.274c0,2.289-1.135,3.434-3.403,3.434h-9.603c-2.27,0-3.403-1.145-3.403-3.434v-22.7
		c0-2.289,1.134-3.434,3.403-3.434h9.603c2.269,0,3.403,1.145,3.403,3.434v5.896h-3.98v-5.773h-8.388v22.456h8.388v-6.594h3.98
		V336.274z"/>
	<path fill="#DE6200" d="M344.265,336.274c0,2.289-1.136,3.434-3.404,3.434h-9.724c-2.27,0-3.403-1.145-3.403-3.434v-22.7
		c0-2.289,1.134-3.434,3.403-3.434h9.724c2.269,0,3.404,1.145,3.404,3.434v10.636l-1.368,1.429h-11.243v10.696h8.69v-5.409h3.921
		V336.274z M340.344,322.417v-8.903h-8.69v8.903H340.344z"/>
	<path fill="#DE6200" d="M379.544,336.274c0,2.289-1.135,3.434-3.403,3.434h-9.603c-2.27,0-3.403-1.145-3.403-3.434v-22.7
		c0-2.289,1.134-3.434,3.403-3.434h9.603c2.269,0,3.403,1.145,3.403,3.434v5.896h-3.98v-5.773h-8.388v22.456h8.388v-6.594h3.98
		V336.274z"/>
	<path fill="#DE6200" d="M403.095,336.274c0,2.289-1.145,3.434-3.434,3.434h-10.149c-2.27,0-3.403-1.145-3.403-3.434v-22.7
		c0-2.289,1.134-3.434,3.403-3.434h10.149c2.289,0,3.434,1.145,3.434,3.434V336.274z M399.054,336.152v-22.456h-8.904v22.456
		H399.054z"/>
	<path fill="#DE6200" d="M439.408,339.708h-4.041v-25.951L426.555,314v25.708h-4.012v-25.951L413.73,314v25.708h-4.041v-29.567
		h4.041v0.82c1.58-0.202,3.161-0.415,4.741-0.638c1.924-0.243,3.515-0.365,4.771-0.365c1.235,0,2.147,0.375,2.735,1.125
		c1.701-0.223,3.393-0.456,5.074-0.699c2.208-0.283,3.879-0.426,5.014-0.426c2.229,0,3.343,1.104,3.343,3.313V339.708z"/>
	<path fill="#DE6200" d="M475.691,339.708h-4.041v-25.951L462.838,314v25.708h-4.012v-25.951L450.014,314v25.708h-4.041v-29.567
		h4.041v0.82c1.58-0.202,3.161-0.415,4.741-0.638c1.924-0.243,3.515-0.365,4.771-0.365c1.235,0,2.147,0.375,2.735,1.125
		c1.701-0.223,3.393-0.456,5.074-0.699c2.208-0.283,3.879-0.426,5.014-0.426c2.229,0,3.343,1.104,3.343,3.313V339.708z"/>
	<path fill="#DE6200" d="M499.182,339.708h-3.98v-0.82c-1.621,0.223-3.231,0.436-4.832,0.638c-1.944,0.243-3.556,0.365-4.832,0.365
		c-2.188,0-3.281-1.095-3.281-3.282v-26.468h3.98v25.951l8.965-0.243v-25.708h3.98V339.708z"/>
	<path fill="#DE6200" d="M522.762,339.708h-4.041v-25.951L509.816,314v25.708h-4.041v-29.567h4.041v0.82
		c1.58-0.202,3.171-0.415,4.771-0.638c1.944-0.243,3.545-0.365,4.801-0.365c2.249,0,3.373,1.104,3.373,3.313V339.708z"/>
	<path fill="#DE6200" d="M533.58,303.668h-4.103v-5.105h4.103V303.668z M533.52,339.708h-3.98v-29.567h3.98V339.708z"/>
	<path fill="#DE6200" d="M551.023,339.708h-5.743c-2.27,0-3.403-1.145-3.403-3.434v-22.578h-3.556v-3.556h3.556v-9.207h3.98v9.207
		h5.166v3.556h-5.166v22.456h5.166V339.708z"/>
	<path fill="#DE6200" d="M572.842,310.141l-7.11,29.324l-2.948,11.456h-3.98l2.978-11.456l-7.293-29.324h4.163l5.045,23.277
		l5.104-23.277H572.842z"/>
</g>
</svg>
